<?xml version="1.0" standalone="no"?>
<!DOCTYPE svg PUBLIC "-//W3C//DTD SVG 20010904//EN"
 "http://www.w3.org/TR/2001/REC-SVG-20010904/DTD/svg10.dtd">
<svg version="1.0" xmlns="http://www.w3.org/2000/svg"
 width="247.000000pt" height="247.000000pt" viewBox="0 0 247.000000 247.000000"
 preserveAspectRatio="xMidYMid meet">
<metadata>
Created by potrace 1.11, written by Peter Selinger 2001-2013
</metadata>
<g transform="translate(0.000000,247.000000) scale(0.100000,-0.100000)"
fill="#000000" stroke="none">
<path d="M1021 2454 c-375 -63 -720 -322 -895 -672 -157 -314 -167 -707 -26
-1035 134 -310 407 -566 720 -675 160 -56 229 -67 415 -67 181 0 227 7 382 56
59 19 96 37 103 48 27 52 48 266 27 282 -4 3 -1 25 8 50 l15 44 -20 -25 c-23
-30 -24 -29 -6 38 15 54 8 69 -12 29 -10 -19 -11 -16 -6 21 5 36 3 41 -11 36
-8 -4 -15 -3 -14 2 1 5 0 23 -1 39 -2 21 -4 24 -7 11 -4 -15 -9 -10 -23 21
-21 47 -41 65 -33 31 l5 -23 -20 22 c-28 32 -84 63 -112 62 l-25 0 23 -16 c42
-29 25 -41 -25 -17 -27 12 -61 25 -77 29 l-30 6 25 -21 c20 -18 21 -21 4 -15
-87 31 -105 29 -295 -30 -102 -32 -214 -37 -273 -12 -21 9 -57 34 -80 56 -23
22 -53 49 -66 59 -25 19 -25 20 -12 89 9 43 11 95 7 134 -19 184 -19 186 3
256 18 60 53 123 118 211 14 21 15 30 4 70 -6 26 -30 82 -51 125 -45 87 -50
117 -21 117 11 0 71 -20 134 -45 151 -59 198 -68 331 -63 96 3 118 8 162 30
27 15 56 34 63 42 15 17 36 22 26 6 -3 -5 -3 -10 2 -10 11 0 76 64 142 139 53
61 82 80 60 40 -17 -33 2 -43 47 -23 22 9 50 18 64 19 14 1 38 6 54 10 21 6
27 5 22 -4 -9 -14 14 -14 51 0 15 6 55 12 88 13 34 1 75 9 94 19 40 20 45 21
35 6 -4 -8 1 -9 17 -4 31 9 69 33 69 44 0 17 -209 209 -275 253 -151 99 -320
166 -489 193 -112 18 -303 18 -415 -1z"/>
</g>
</svg>
